<svg width="60" height="60" viewBox="0 0 60 60" fill="none" xmlns="http://www.w3.org/2000/svg">
<mask id="mask0_85_87" style="mask-type:alpha" maskUnits="userSpaceOnUse" x="0" y="0" width="60" height="60">
<rect width="60" height="60" fill="#D9D9D9"/>
</mask>
<g mask="url(#mask0_85_87)">
<path d="M22 52.5H12.5C11.125 52.5 9.94792 52.0104 8.96875 51.0312C7.98958 50.0521 7.5 48.875 7.5 47.5V38C9.5 38 11.25 37.3646 12.75 36.0938C14.25 34.8229 15 33.2083 15 31.25C15 29.2917 14.25 27.6771 12.75 26.4062C11.25 25.1354 9.5 24.5 7.5 24.5V15C7.5 13.625 7.98958 12.4479 8.96875 11.4688C9.94792 10.4896 11.125 10 12.5 10H22.5C22.5 8.25 23.1042 6.77083 24.3125 5.5625C25.5208 4.35417 27 3.75 28.75 3.75C30.5 3.75 31.9792 4.35417 33.1875 5.5625C34.3958 6.77083 35 8.25 35 10H45C46.375 10 47.5521 10.4896 48.5312 11.4688C49.5104 12.4479 50 13.625 50 15V25C51.75 25 53.2292 25.6042 54.4375 26.8125C55.6458 28.0208 56.25 29.5 56.25 31.25C56.25 33 55.6458 34.4792 54.4375 35.6875C53.2292 36.8958 51.75 37.5 50 37.5V47.5C50 48.875 49.5104 50.0521 48.5312 51.0312C47.5521 52.0104 46.375 52.5 45 52.5H35.5C35.5 50.4167 34.8438 48.6458 33.5312 47.1875C32.2188 45.7292 30.625 45 28.75 45C26.875 45 25.2812 45.7292 23.9688 47.1875C22.6562 48.6458 22 50.4167 22 52.5ZM12.5 47.5H17.8125C18.8125 44.75 20.4167 42.8125 22.625 41.6875C24.8333 40.5625 26.875 40 28.75 40C30.625 40 32.6667 40.5625 34.875 41.6875C37.0833 42.8125 38.6875 44.75 39.6875 47.5H45V32.5H50C50.3333 32.5 50.625 32.375 50.875 32.125C51.125 31.875 51.25 31.5833 51.25 31.25C51.25 30.9167 51.125 30.625 50.875 30.375C50.625 30.125 50.3333 30 50 30H45V15H30V10C30 9.66667 29.875 9.375 29.625 9.125C29.375 8.875 29.0833 8.75 28.75 8.75C28.4167 8.75 28.125 8.875 27.875 9.125C27.625 9.375 27.5 9.66667 27.5 10V15H12.5V20.5C14.75 21.3333 16.5625 22.7292 17.9375 24.6875C19.3125 26.6458 20 28.8333 20 31.25C20 33.625 19.3125 35.7917 17.9375 37.75C16.5625 39.7083 14.75 41.125 12.5 42V47.5Z" fill="#FFFDF8"/>
</g>
</svg>
