<svg width="60" height="60" viewBox="0 0 60 60" fill="none" xmlns="http://www.w3.org/2000/svg">
<mask id="mask0_85_99" style="mask-type:alpha" maskUnits="userSpaceOnUse" x="0" y="0" width="60" height="60">
<rect width="60" height="60" fill="#D9D9D9"/>
</mask>
<g mask="url(#mask0_85_99)">
<path d="M11.8125 50C9.3125 50 7.17708 49.1042 5.40625 47.3125C3.63542 45.5208 2.70833 43.3542 2.625 40.8125C2.625 40.4375 2.64583 40.0625 2.6875 39.6875C2.72917 39.3125 2.79167 38.9375 2.875 38.5625L8.125 17.5625C8.70833 15.3125 9.89583 13.4896 11.6875 12.0938C13.4792 10.6979 15.5208 10 17.8125 10H42.1875C44.4792 10 46.5208 10.6979 48.3125 12.0938C50.1042 13.4896 51.2917 15.3125 51.875 17.5625L57.125 38.5625C57.2083 38.9375 57.2813 39.3229 57.3438 39.7188C57.4063 40.1146 57.4375 40.5 57.4375 40.875C57.4375 43.4167 56.5313 45.5729 54.7188 47.3438C52.9063 49.1146 50.7292 50 48.1875 50C46.4375 50 44.8125 49.5417 43.3125 48.625C41.8125 47.7083 40.6875 46.4583 39.9375 44.875L38.1875 41.25C37.9792 40.8333 37.6667 40.5208 37.25 40.3125C36.8333 40.1042 36.3958 40 35.9375 40H24.0625C23.6042 40 23.1667 40.1042 22.75 40.3125C22.3333 40.5208 22.0208 40.8333 21.8125 41.25L20.0625 44.875C19.3125 46.4583 18.1875 47.7083 16.6875 48.625C15.1875 49.5417 13.5625 50 11.8125 50ZM12 45C12.7917 45 13.5104 44.7917 14.1562 44.375C14.8021 43.9583 15.2917 43.3958 15.625 42.6875L17.375 39.125C18 37.8333 18.9167 36.8229 20.125 36.0938C21.3333 35.3646 22.6458 35 24.0625 35H35.9375C37.3542 35 38.6667 35.375 39.875 36.125C41.0833 36.875 42.0208 37.875 42.6875 39.125L44.4375 42.6875C44.7708 43.3958 45.2604 43.9583 45.9063 44.375C46.5521 44.7917 47.2708 45 48.0625 45C49.2292 45 50.2292 44.6146 51.0625 43.8438C51.8958 43.0729 52.3333 42.1042 52.375 40.9375C52.375 40.9792 52.3333 40.5833 52.25 39.75L47 18.8125C46.7083 17.6875 46.125 16.7708 45.25 16.0625C44.375 15.3542 43.3542 15 42.1875 15H17.8125C16.6458 15 15.6146 15.3542 14.7188 16.0625C13.8229 16.7708 13.25 17.6875 13 18.8125L7.75 39.75C7.66667 40 7.625 40.375 7.625 40.875C7.625 42.0417 8.05208 43.0208 8.90625 43.8125C9.76042 44.6042 10.7917 45 12 45ZM33.75 27.5C34.4583 27.5 35.0521 27.2604 35.5313 26.7812C36.0104 26.3021 36.25 25.7083 36.25 25C36.25 24.2917 36.0104 23.6979 35.5313 23.2188C35.0521 22.7396 34.4583 22.5 33.75 22.5C33.0417 22.5 32.4479 22.7396 31.9688 23.2188C31.4896 23.6979 31.25 24.2917 31.25 25C31.25 25.7083 31.4896 26.3021 31.9688 26.7812C32.4479 27.2604 33.0417 27.5 33.75 27.5ZM38.75 22.5C39.4583 22.5 40.0521 22.2604 40.5313 21.7812C41.0104 21.3021 41.25 20.7083 41.25 20C41.25 19.2917 41.0104 18.6979 40.5313 18.2188C40.0521 17.7396 39.4583 17.5 38.75 17.5C38.0417 17.5 37.4479 17.7396 36.9688 18.2188C36.4896 18.6979 36.25 19.2917 36.25 20C36.25 20.7083 36.4896 21.3021 36.9688 21.7812C37.4479 22.2604 38.0417 22.5 38.75 22.5ZM38.75 32.5C39.4583 32.5 40.0521 32.2604 40.5313 31.7813C41.0104 31.3021 41.25 30.7083 41.25 30C41.25 29.2917 41.0104 28.6979 40.5313 28.2188C40.0521 27.7396 39.4583 27.5 38.75 27.5C38.0417 27.5 37.4479 27.7396 36.9688 28.2188C36.4896 28.6979 36.25 29.2917 36.25 30C36.25 30.7083 36.4896 31.3021 36.9688 31.7813C37.4479 32.2604 38.0417 32.5 38.75 32.5ZM43.75 27.5C44.4583 27.5 45.0521 27.2604 45.5313 26.7812C46.0104 26.3021 46.25 25.7083 46.25 25C46.25 24.2917 46.0104 23.6979 45.5313 23.2188C45.0521 22.7396 44.4583 22.5 43.75 22.5C43.0417 22.5 42.4479 22.7396 41.9688 23.2188C41.4896 23.6979 41.25 24.2917 41.25 25C41.25 25.7083 41.4896 26.3021 41.9688 26.7812C42.4479 27.2604 43.0417 27.5 43.75 27.5ZM21.25 31.25C21.7917 31.25 22.2396 31.0729 22.5938 30.7188C22.9479 30.3646 23.125 29.9167 23.125 29.375V26.875H25.625C26.1667 26.875 26.6146 26.6979 26.9688 26.3438C27.3229 25.9896 27.5 25.5417 27.5 25C27.5 24.4583 27.3229 24.0104 26.9688 23.6562C26.6146 23.3021 26.1667 23.125 25.625 23.125H23.125V20.625C23.125 20.0833 22.9479 19.6354 22.5938 19.2812C22.2396 18.9271 21.7917 18.75 21.25 18.75C20.7083 18.75 20.2604 18.9271 19.9062 19.2812C19.5521 19.6354 19.375 20.0833 19.375 20.625V23.125H16.875C16.3333 23.125 15.8854 23.3021 15.5313 23.6562C15.1771 24.0104 15 24.4583 15 25C15 25.5417 15.1771 25.9896 15.5313 26.3438C15.8854 26.6979 16.3333 26.875 16.875 26.875H19.375V29.375C19.375 29.9167 19.5521 30.3646 19.9062 30.7188C20.2604 31.0729 20.7083 31.25 21.25 31.25Z" fill="#FFFDF8"/>
</g>
</svg>
