<svg width="60" height="60" viewBox="0 0 60 60" fill="none" xmlns="http://www.w3.org/2000/svg">
<mask id="mask0_242_1457" style="mask-type:alpha" maskUnits="userSpaceOnUse" x="0" y="0" width="60" height="60">
<rect width="60" height="60" fill="#D9D9D9"/>
</mask>
<g mask="url(#mask0_242_1457)">
<path d="M27.75 47.5H32.125V44.375C34.2083 44 36 43.1875 37.5 41.9375C39 40.6875 39.75 38.8333 39.75 36.375C39.75 34.625 39.25 33.0208 38.25 31.5625C37.25 30.1042 35.25 28.8333 32.25 27.75C29.75 26.9167 28.0208 26.1875 27.0625 25.5625C26.1042 24.9375 25.625 24.0833 25.625 23C25.625 21.9167 26.0104 21.0625 26.7813 20.4375C27.5521 19.8125 28.6667 19.5 30.125 19.5C31.4583 19.5 32.5 19.8229 33.25 20.4688C34 21.1146 34.5417 21.9167 34.875 22.875L38.875 21.25C38.4167 19.7917 37.5729 18.5208 36.3438 17.4375C35.1146 16.3542 33.75 15.75 32.25 15.625V12.5H27.875V15.625C25.7917 16.0833 24.1667 17 23 18.375C21.8333 19.75 21.25 21.2917 21.25 23C21.25 24.9583 21.8229 26.5417 22.9688 27.75C24.1146 28.9583 25.9167 30 28.375 30.875C31 31.8333 32.8229 32.6875 33.8438 33.4375C34.8646 34.1875 35.375 35.1667 35.375 36.375C35.375 37.75 34.8854 38.7604 33.9062 39.4062C32.9271 40.0521 31.75 40.375 30.375 40.375C29 40.375 27.7813 39.9479 26.7188 39.0937C25.6562 38.2396 24.875 36.9583 24.375 35.25L20.25 36.875C20.8333 38.875 21.7396 40.4896 22.9688 41.7188C24.1979 42.9479 25.7917 43.7917 27.75 44.25V47.5ZM30 55C26.5417 55 23.2917 54.3437 20.25 53.0312C17.2083 51.7187 14.5625 49.9375 12.3125 47.6875C10.0625 45.4375 8.28125 42.7917 6.96875 39.75C5.65625 36.7083 5 33.4583 5 30C5 26.5417 5.65625 23.2917 6.96875 20.25C8.28125 17.2083 10.0625 14.5625 12.3125 12.3125C14.5625 10.0625 17.2083 8.28125 20.25 6.96875C23.2917 5.65625 26.5417 5 30 5C33.4583 5 36.7083 5.65625 39.75 6.96875C42.7917 8.28125 45.4375 10.0625 47.6875 12.3125C49.9375 14.5625 51.7187 17.2083 53.0312 20.25C54.3437 23.2917 55 26.5417 55 30C55 33.4583 54.3437 36.7083 53.0312 39.75C51.7187 42.7917 49.9375 45.4375 47.6875 47.6875C45.4375 49.9375 42.7917 51.7187 39.75 53.0312C36.7083 54.3437 33.4583 55 30 55ZM30 50C35.5833 50 40.3125 48.0625 44.1875 44.1875C48.0625 40.3125 50 35.5833 50 30C50 24.4167 48.0625 19.6875 44.1875 15.8125C40.3125 11.9375 35.5833 10 30 10C24.4167 10 19.6875 11.9375 15.8125 15.8125C11.9375 19.6875 10 24.4167 10 30C10 35.5833 11.9375 40.3125 15.8125 44.1875C19.6875 48.0625 24.4167 50 30 50Z" fill="#FFFDF8"/>
</g>
</svg>
