<svg width="60" height="60" viewBox="0 0 60 60" fill="none" xmlns="http://www.w3.org/2000/svg">
<mask id="mask0_85_123" style="mask-type:alpha" maskUnits="userSpaceOnUse" x="0" y="0" width="60" height="60">
<rect width="60" height="60" fill="#D9D9D9"/>
</mask>
<g mask="url(#mask0_85_123)">
<path d="M20 52.5V47.5H25V42.5H10C8.625 42.5 7.44792 42.0104 6.46875 41.0312C5.48958 40.0521 5 38.875 5 37.5V12.5C5 11.125 5.48958 9.94792 6.46875 8.96875C7.44792 7.98958 8.625 7.5 10 7.5H50C51.375 7.5 52.5521 7.98958 53.5312 8.96875C54.5104 9.94792 55 11.125 55 12.5V37.5C55 38.875 54.5104 40.0521 53.5312 41.0312C52.5521 42.0104 51.375 42.5 50 42.5H35V47.5H40V52.5H20ZM10 37.5H50V12.5H10V37.5Z" fill="#FFFDF8"/>
</g>
</svg>
