<svg width="60" height="60" viewBox="0 0 60 60" fill="none" xmlns="http://www.w3.org/2000/svg">
<mask id="mask0_85_81" style="mask-type:alpha" maskUnits="userSpaceOnUse" x="0" y="0" width="60" height="60">
<rect width="60" height="60" fill="#D9D9D9"/>
</mask>
<g mask="url(#mask0_85_81)">
<path d="M10 10L15 20H22.5L17.5 10H22.5L27.5 20H35L30 10H35L40 20H47.5L42.5 10H50C51.375 10 52.5521 10.4896 53.5312 11.4688C54.5104 12.4479 55 13.625 55 15V45C55 46.375 54.5104 47.5521 53.5312 48.5312C52.5521 49.5104 51.375 50 50 50H10C8.625 50 7.44792 49.5104 6.46875 48.5312C5.48958 47.5521 5 46.375 5 45V15C5 13.625 5.48958 12.4479 6.46875 11.4688C7.44792 10.4896 8.625 10 10 10ZM10 25V45H50V25H10Z" fill="#FFFDF8"/>
</g>
</svg>
