<svg width="60" height="60" viewBox="0 0 60 60" fill="none" xmlns="http://www.w3.org/2000/svg">
<mask id="mask0_242_1439" style="mask-type:alpha" maskUnits="userSpaceOnUse" x="0" y="0" width="60" height="60">
<rect width="60" height="60" fill="#D9D9D9"/>
</mask>
<g mask="url(#mask0_242_1439)">
<path d="M40 32.5L29.625 22.375C28.3333 21.125 27.2396 19.7396 26.3438 18.2187C25.4479 16.6979 25 15.0417 25 13.25C25 10.9583 25.8021 9.01042 27.4063 7.40625C29.0104 5.80208 30.9583 5 33.25 5C34.5833 5 35.8333 5.28125 37 5.84375C38.1667 6.40625 39.1667 7.16667 40 8.125C40.8333 7.16667 41.8333 6.40625 43 5.84375C44.1667 5.28125 45.4167 5 46.75 5C49.0417 5 50.9896 5.80208 52.5938 7.40625C54.1979 9.01042 55 10.9583 55 13.25C55 15.0417 54.5625 16.6979 53.6875 18.2187C52.8125 19.7396 51.7292 21.125 50.4375 22.375L40 32.5ZM40 25.5L46.8125 18.8125C47.6042 18.0208 48.3333 17.1771 49 16.2813C49.6667 15.3854 50 14.375 50 13.25C50 12.3333 49.6875 11.5625 49.0625 10.9375C48.4375 10.3125 47.6667 10 46.75 10C46.1667 10 45.6146 10.1146 45.0938 10.3438C44.5729 10.5729 44.125 10.9167 43.75 11.375L40 15.875L36.25 11.375C35.875 10.9167 35.4271 10.5729 34.9063 10.3438C34.3854 10.1146 33.8333 10 33.25 10C32.3333 10 31.5625 10.3125 30.9375 10.9375C30.3125 11.5625 30 12.3333 30 13.25C30 14.375 30.3333 15.3854 31 16.2813C31.6667 17.1771 32.3958 18.0208 33.1875 18.8125L40 25.5ZM17.5 46.25L34.875 51L49.75 46.375C49.5417 46 49.2396 45.6771 48.8438 45.4063C48.4479 45.1354 48 45 47.5 45H34.875C33.75 45 32.8542 44.9583 32.1875 44.875C31.5208 44.7917 30.8333 44.625 30.125 44.375L24.3125 42.4375L25.6875 37.5625L30.75 39.25C31.4583 39.4583 32.2917 39.625 33.25 39.75C34.2083 39.875 35.625 39.9583 37.5 40C37.5 39.5417 37.3646 39.1042 37.0938 38.6875C36.8229 38.2708 36.5 38 36.125 37.875L21.5 32.5H17.5V46.25ZM2.5 55V27.5H21.5C21.7917 27.5 22.0833 27.5313 22.375 27.5938C22.6667 27.6563 22.9375 27.7292 23.1875 27.8125L37.875 33.25C39.25 33.75 40.3646 34.625 41.2188 35.875C42.0729 37.125 42.5 38.5 42.5 40H47.5C49.5833 40 51.3542 40.6875 52.8125 42.0625C54.2708 43.4375 55 45.25 55 47.5V50L35 56.25L17.5 51.375V55H2.5ZM7.5 50H12.5V32.5H7.5V50Z" fill="#FFFDF8"/>
</g>
</svg>
