<svg width="60" height="60" viewBox="0 0 60 60" fill="none" xmlns="http://www.w3.org/2000/svg">
<mask id="mask0_85_93" style="mask-type:alpha" maskUnits="userSpaceOnUse" x="0" y="0" width="60" height="60">
<rect width="60" height="60" fill="#D9D9D9"/>
</mask>
<g mask="url(#mask0_85_93)">
<path d="M8.5625 50L5 46.5L15.25 36.25C16.5417 34.9583 17.4271 33.3438 17.9062 31.4063C18.3854 29.4688 18.625 26.5 18.625 22.5C18.625 20.0833 19.1667 17.7083 20.25 15.375C21.3333 13.0417 22.875 10.875 24.875 8.875C28.6667 5.08333 32.8542 2.9375 37.4375 2.4375C42.0208 1.9375 45.7917 3.20834 48.75 6.25C51.75 9.25 53 13.0417 52.5 17.625C52 22.2083 49.875 26.375 46.125 30.125C44.125 32.125 41.9583 33.6667 39.625 34.75C37.2917 35.8333 34.9167 36.375 32.5 36.375C28.4583 36.375 25.5 36.6042 23.625 37.0625C21.75 37.5208 20.1458 38.4167 18.8125 39.75L8.5625 50ZM25.75 29.125C27.7083 31.0417 30.3542 31.75 33.6875 31.25C37.0208 30.75 40 29.1875 42.625 26.5625C45.2917 23.8958 46.8854 20.9063 47.4062 17.5938C47.9271 14.2813 47.2083 11.6875 45.25 9.8125C43.25 7.8125 40.6354 7.0625 37.4062 7.5625C34.1771 8.0625 31.2083 9.64584 28.5 12.3125C25.875 14.9375 24.2812 17.9063 23.7188 21.2188C23.1562 24.5313 23.8333 27.1667 25.75 29.125ZM45 57.5C42.25 57.5 39.8958 56.5208 37.9375 54.5625C35.9792 52.6042 35 50.25 35 47.5C35 44.75 35.9792 42.3958 37.9375 40.4375C39.8958 38.4792 42.25 37.5 45 37.5C47.75 37.5 50.1042 38.4792 52.0625 40.4375C54.0208 42.3958 55 44.75 55 47.5C55 50.25 54.0208 52.6042 52.0625 54.5625C50.1042 56.5208 47.75 57.5 45 57.5ZM45 52.5C46.375 52.5 47.5521 52.0104 48.5312 51.0312C49.5104 50.0521 50 48.875 50 47.5C50 46.125 49.5104 44.9479 48.5312 43.9688C47.5521 42.9896 46.375 42.5 45 42.5C43.625 42.5 42.4479 42.9896 41.4688 43.9688C40.4896 44.9479 40 46.125 40 47.5C40 48.875 40.4896 50.0521 41.4688 51.0312C42.4479 52.0104 43.625 52.5 45 52.5Z" fill="#FFFDF8"/>
</g>
</svg>
