<svg width="60" height="60" viewBox="0 0 60 60" fill="none" xmlns="http://www.w3.org/2000/svg">
<mask id="mask0_85_111" style="mask-type:alpha" maskUnits="userSpaceOnUse" x="0" y="0" width="60" height="60">
<rect width="60" height="60" fill="#D9D9D9"/>
</mask>
<g mask="url(#mask0_85_111)">
<path d="M12.5 52.5C10.375 52.5 8.86456 51.5521 7.96872 49.6563C7.07289 47.7604 7.29164 46 8.62497 44.375L22.5 27.5V12.5H20C19.2916 12.5 18.6979 12.2604 18.2187 11.7812C17.7396 11.3021 17.5 10.7083 17.5 10C17.5 9.29167 17.7396 8.69792 18.2187 8.21875C18.6979 7.73958 19.2916 7.5 20 7.5H40C40.7083 7.5 41.3021 7.73958 41.7812 8.21875C42.2604 8.69792 42.5 9.29167 42.5 10C42.5 10.7083 42.2604 11.3021 41.7812 11.7812C41.3021 12.2604 40.7083 12.5 40 12.5H37.5V27.5L51.375 44.375C52.7083 46 52.9271 47.7604 52.0312 49.6563C51.1354 51.5521 49.625 52.5 47.5 52.5H12.5ZM17.5 45H42.5L34 35H26L17.5 45ZM12.5 47.5H47.5L32.5 29.25V12.5H27.5V29.25L12.5 47.5Z" fill="#FFFDF8"/>
</g>
</svg>
