<svg width="60" height="60" viewBox="0 0 60 60" fill="none" xmlns="http://www.w3.org/2000/svg">
<mask id="mask0_242_1433" style="mask-type:alpha" maskUnits="userSpaceOnUse" x="0" y="0" width="60" height="60">
<rect width="60" height="60" fill="#D9D9D9"/>
</mask>
<g mask="url(#mask0_242_1433)">
<path d="M11.0625 25C11.6458 23.5 11.7396 22.1667 11.3438 21C10.9479 19.8333 10.2708 18.6667 9.3125 17.5C7.9375 15.8333 7.03125 14.2604 6.59375 12.7812C6.15625 11.3021 6.08333 9.54167 6.375 7.5H11.25C10.9167 9.08333 10.8646 10.375 11.0938 11.375C11.3229 12.375 11.9167 13.4583 12.875 14.625C14.4583 16.5417 15.4688 18.2396 15.9063 19.7188C16.3438 21.1979 16.3542 22.9583 15.9375 25H11.0625ZM21.0625 25C21.6458 23.5 21.75 22.1667 21.375 21C21 19.8333 20.3333 18.6667 19.375 17.5C18 15.8333 17.0833 14.2604 16.625 12.7812C16.1667 11.3021 16.0833 9.54167 16.375 7.5H21.25C20.9167 9.08333 20.8646 10.375 21.0938 11.375C21.3229 12.375 21.9167 13.4583 22.875 14.625C24.4583 16.5417 25.4688 18.2396 25.9063 19.7188C26.3438 21.1979 26.3542 22.9583 25.9375 25H21.0625ZM31.0625 25C31.6458 23.5 31.75 22.1667 31.375 21C31 19.8333 30.3333 18.6667 29.375 17.5C28 15.8333 27.0833 14.2604 26.625 12.7812C26.1667 11.3021 26.0833 9.54167 26.375 7.5H31.25C30.9167 9.08333 30.8646 10.375 31.0938 11.375C31.3229 12.375 31.9167 13.4583 32.875 14.625C34.4583 16.5417 35.4688 18.2396 35.9063 19.7188C36.3438 21.1979 36.3542 22.9583 35.9375 25H31.0625ZM12.5 50C10.4167 50 8.64583 49.2708 7.1875 47.8125C5.72917 46.3542 5 44.5833 5 42.5V30H40.0625C40.2708 28.5833 40.8333 27.3438 41.75 26.2813C42.6667 25.2188 43.7917 24.4583 45.125 24L56.6875 20.125L58.25 24.875L46.6875 28.75C46.1875 28.9167 45.7813 29.2188 45.4688 29.6563C45.1563 30.0938 45 30.5833 45 31.125V42.5C45 44.5833 44.2708 46.3542 42.8125 47.8125C41.3542 49.2708 39.5833 50 37.5 50H12.5ZM12.5 45H37.5C38.2083 45 38.8021 44.7604 39.2813 44.2813C39.7604 43.8021 40 43.2083 40 42.5V35H10V42.5C10 43.2083 10.2396 43.8021 10.7188 44.2813C11.1979 44.7604 11.7917 45 12.5 45Z" fill="#FFFDF8"/>
</g>
</svg>
