<svg width="60" height="60" viewBox="0 0 60 60" fill="none" xmlns="http://www.w3.org/2000/svg">
<mask id="mask0_85_63" style="mask-type:alpha" maskUnits="userSpaceOnUse" x="0" y="0" width="60" height="60">
<rect width="60" height="60" fill="#D9D9D9"/>
</mask>
<g mask="url(#mask0_85_63)">
<path d="M25 52.5C22.25 52.5 19.8958 51.5208 17.9375 49.5625C15.9792 47.6042 15 45.25 15 42.5C15 39.75 15.9792 37.3958 17.9375 35.4375C19.8958 33.4792 22.25 32.5 25 32.5C25.9583 32.5 26.8438 32.6146 27.6562 32.8438C28.4688 33.0729 29.25 33.4167 30 33.875V7.5H45V17.5H35V42.5C35 45.25 34.0208 47.6042 32.0625 49.5625C30.1042 51.5208 27.75 52.5 25 52.5Z" fill="#FFFDF8"/>
</g>
</svg>
