<svg width="60" height="60" viewBox="0 0 60 60" fill="none" xmlns="http://www.w3.org/2000/svg">
<mask id="mask0_85_117" style="mask-type:alpha" maskUnits="userSpaceOnUse" x="0" y="0" width="60" height="60">
<rect width="60" height="60" fill="#D9D9D9"/>
</mask>
<g mask="url(#mask0_85_117)">
<path d="M49 52.4999L33.125 36.6249L36.625 33.1249L52.5 48.9999L49 52.4999ZM14.875 50.7499C12.375 48.2499 10.5208 45.4374 9.3125 42.3124C8.10417 39.1874 7.5 35.9999 7.5 32.7499C7.5 29.4999 8.10417 26.3333 9.3125 23.2499C10.5208 20.1666 12.375 17.3749 14.875 14.8749C17.375 12.3749 20.1771 10.5104 23.2812 9.28119C26.3854 8.05202 29.5625 7.43744 32.8125 7.43744C36.0625 7.43744 39.2396 8.05202 42.3438 9.28119C45.4479 10.5104 48.25 12.3749 50.75 14.8749L14.875 50.7499ZM15.375 43.1249L18.75 39.7499C18.0833 38.8749 17.4479 37.9791 16.8438 37.0624C16.2396 36.1458 15.6875 35.2291 15.1875 34.3124C14.6875 33.3958 14.25 32.4791 13.875 31.5624C13.5 30.6458 13.1667 29.7499 12.875 28.8749C12.4167 31.3333 12.3854 33.7916 12.7812 36.2499C13.1771 38.7083 14.0417 40.9999 15.375 43.1249ZM22.375 36.2499L36.25 22.2499C34.4583 20.8749 32.6563 19.7604 30.8438 18.9062C29.0313 18.052 27.3333 17.4687 25.75 17.1562C24.1667 16.8437 22.7396 16.7916 21.4688 16.9999C20.1979 17.2083 19.2083 17.6666 18.5 18.3749C17.7917 19.1249 17.3333 20.1354 17.125 21.4062C16.9167 22.677 16.9688 24.1145 17.2812 25.7187C17.5938 27.3229 18.1771 29.0208 19.0312 30.8124C19.8854 32.6041 21 34.4166 22.375 36.2499ZM39.75 18.7499L43.25 15.3749C41.0417 14.0416 38.7083 13.1666 36.25 12.7499C33.7917 12.3333 31.3333 12.3749 28.875 12.8749C29.7917 13.1666 30.7083 13.4999 31.625 13.8749C32.5417 14.2499 33.4583 14.677 34.375 15.1562C35.2917 15.6354 36.1979 16.177 37.0938 16.7812C37.9896 17.3854 38.875 18.0416 39.75 18.7499Z" fill="#FFFDF8"/>
</g>
</svg>
