<svg width="60" height="60" viewBox="0 0 60 60" fill="none" xmlns="http://www.w3.org/2000/svg">
<mask id="mask0_242_1427" style="mask-type:alpha" maskUnits="userSpaceOnUse" x="0" y="0" width="60" height="60">
<rect width="60" height="60" fill="#D9D9D9"/>
</mask>
<g mask="url(#mask0_242_1427)">
<path d="M5 57.5V52.5H55V57.5H5ZM10 50V35C8.625 32.75 7.5625 30.3646 6.8125 27.8437C6.0625 25.3229 5.6875 22.75 5.6875 20.125C5.6875 17.5833 6.01042 15.0833 6.65625 12.625C7.30208 10.1667 8.0625 7.75 8.9375 5.375C9.27083 4.5 9.8125 3.80208 10.5625 3.28125C11.3125 2.76042 12.1458 2.5 13.0625 2.5C14.3542 2.5 15.4583 2.9375 16.375 3.8125C17.2917 4.6875 17.6667 5.72917 17.5 6.9375L16.8125 12.625C16.5625 14.625 16.7396 16.5208 17.3438 18.3125C17.9479 20.1042 18.8542 21.6771 20.0625 23.0313C21.2708 24.3854 22.7292 25.4687 24.4375 26.2812C26.1458 27.0937 28 27.5 30 27.5C32.5 27.5 35.0104 27.7604 37.5312 28.2812C40.0521 28.8021 42.25 29.5417 44.125 30.5C46 31.4583 47.4479 32.6771 48.4688 34.1563C49.4896 35.6354 50 37.4583 50 39.625V50H10ZM15 45H45V39.625C45 38.625 44.75 37.7396 44.25 36.9688C43.75 36.1979 43.0417 35.5833 42.125 35.125C40.4167 34.2917 38.4375 33.6458 36.1875 33.1875C33.9375 32.7292 31.875 32.5 30 32.5C27.25 32.5 24.6979 31.9375 22.3438 30.8125C19.9896 29.6875 17.9896 28.1771 16.3437 26.2812C14.6979 24.3854 13.4583 22.1979 12.625 19.7188C11.7917 17.2396 11.5417 14.6667 11.875 12C11.4583 13.25 11.1563 14.5833 10.9688 16C10.7813 17.4167 10.6875 18.7917 10.6875 20.125C10.6875 22.5417 11.1146 24.8646 11.9688 27.0938C12.8229 29.3229 13.8333 31.5 15 33.625V45ZM30 25C27.25 25 24.8958 24.0208 22.9375 22.0625C20.9792 20.1042 20 17.75 20 15C20 12.25 20.9792 9.89583 22.9375 7.9375C24.8958 5.97917 27.25 5 30 5C32.75 5 35.1042 5.97917 37.0625 7.9375C39.0208 9.89583 40 12.25 40 15C40 17.75 39.0208 20.1042 37.0625 22.0625C35.1042 24.0208 32.75 25 30 25ZM30 20C31.375 20 32.5521 19.5104 33.5313 18.5312C34.5104 17.5521 35 16.375 35 15C35 13.625 34.5104 12.4479 33.5313 11.4688C32.5521 10.4896 31.375 10 30 10C28.625 10 27.4479 10.4896 26.4688 11.4688C25.4896 12.4479 25 13.625 25 15C25 16.375 25.4896 17.5521 26.4688 18.5312C27.4479 19.5104 28.625 20 30 20ZM20 50V47.6875C20 44.8958 20.9687 42.5 22.9062 40.5C24.8437 38.5 27.2083 37.5 30 37.5H40V42.5H30C28.5833 42.5 27.3958 43.0104 26.4375 44.0313C25.4792 45.0521 25 46.2708 25 47.6875V50H20Z" fill="#FFFDF8"/>
</g>
</svg>
