<svg width="60" height="60" viewBox="0 0 60 60" fill="none" xmlns="http://www.w3.org/2000/svg">
<mask id="mask0_242_1451" style="mask-type:alpha" maskUnits="userSpaceOnUse" x="0" y="0" width="60" height="60">
<rect width="60" height="60" fill="#D9D9D9"/>
</mask>
<g mask="url(#mask0_242_1451)">
<path d="M7.5 50C6.79167 50 6.19792 49.7604 5.71875 49.2813C5.23958 48.8021 5 48.2083 5 47.5C5 47.0833 5.08333 46.6979 5.25 46.3438C5.41667 45.9896 5.66667 45.7083 6 45.5L27.5 29.375V25C27.5 24.2917 27.75 23.6979 28.25 23.2187C28.75 22.7396 29.3542 22.5 30.0625 22.5C31.1042 22.5 31.9792 22.125 32.6875 21.375C33.3958 20.625 33.75 19.7292 33.75 18.6875C33.75 17.6458 33.3854 16.7708 32.6562 16.0625C31.9271 15.3542 31.0417 15 30 15C28.9583 15 28.0729 15.3646 27.3438 16.0938C26.6146 16.8229 26.25 17.7083 26.25 18.75H21.25C21.25 16.3333 22.1042 14.2708 23.8125 12.5625C25.5208 10.8542 27.5833 10 30 10C32.4167 10 34.4792 10.8438 36.1875 12.5313C37.8958 14.2188 38.75 16.2708 38.75 18.6875C38.75 20.6458 38.1771 22.3958 37.0312 23.9375C35.8854 25.4792 34.375 26.5417 32.5 27.125V29.375L54 45.5C54.3333 45.7083 54.5833 45.9896 54.75 46.3438C54.9167 46.6979 55 47.0833 55 47.5C55 48.2083 54.7604 48.8021 54.2812 49.2813C53.8021 49.7604 53.2083 50 52.5 50H7.5ZM15 45H45L30 33.75L15 45Z" fill="#FFFDF8"/>
</g>
</svg>
