<svg width="33" height="30" viewBox="0 0 33 30" fill="none" xmlns="http://www.w3.org/2000/svg">
<path d="M16.5 24.1667C18.5625 24.1667 20.3156 23.4375 21.7594 21.9792C23.2031 20.5208 23.925 18.75 23.925 16.6667C23.925 14.5833 23.2031 12.8125 21.7594 11.3542C20.3156 9.89583 18.5625 9.16667 16.5 9.16667C14.4375 9.16667 12.6844 9.89583 11.2406 11.3542C9.79688 12.8125 9.075 14.5833 9.075 16.6667C9.075 18.75 9.79688 20.5208 11.2406 21.9792C12.6844 23.4375 14.4375 24.1667 16.5 24.1667ZM16.5 20.8333C15.345 20.8333 14.3688 20.4306 13.5712 19.625C12.7738 18.8194 12.375 17.8333 12.375 16.6667C12.375 15.5 12.7738 14.5139 13.5712 13.7083C14.3688 12.9028 15.345 12.5 16.5 12.5C17.655 12.5 18.6313 12.9028 19.4288 13.7083C20.2263 14.5139 20.625 15.5 20.625 16.6667C20.625 17.8333 20.2263 18.8194 19.4288 19.625C18.6313 20.4306 17.655 20.8333 16.5 20.8333ZM3.3 30C2.3925 30 1.61563 29.6736 0.969375 29.0208C0.323125 28.3681 0 27.5833 0 26.6667V6.66667C0 5.75 0.323125 4.96528 0.969375 4.3125C1.61563 3.65972 2.3925 3.33333 3.3 3.33333H8.4975L11.55 0H21.45L24.5025 3.33333H29.7C30.6075 3.33333 31.3844 3.65972 32.0306 4.3125C32.6769 4.96528 33 5.75 33 6.66667V26.6667C33 27.5833 32.6769 28.3681 32.0306 29.0208C31.3844 29.6736 30.6075 30 29.7 30H3.3ZM3.3 26.6667H29.7V6.66667H23.0175L20.0063 3.33333H12.9937L9.9825 6.66667H3.3V26.6667Z" fill="#FF986A"/>
</svg>
