<svg width="33" height="30" viewBox="0 0 33 30" fill="none" xmlns="http://www.w3.org/2000/svg">
<path d="M16.5 30L14.1075 27.8747C11.33 25.3951 9.03375 23.2561 7.21875 21.4578C5.40375 19.6594 3.96 18.045 2.8875 16.6144C1.815 15.1839 1.06562 13.8692 0.639375 12.6703C0.213125 11.4714 0 10.2452 0 8.99183C0 6.43052 0.86625 4.29155 2.59875 2.57493C4.33125 0.858311 6.49 0 9.075 0C10.505 0 11.8663 0.299728 13.1587 0.899183C14.4513 1.49864 15.565 2.34332 16.5 3.43324C17.435 2.34332 18.5487 1.49864 19.8413 0.899183C21.1338 0.299728 22.495 0 23.925 0C26.51 0 28.6688 0.858311 30.4013 2.57493C32.1338 4.29155 33 6.43052 33 8.99183C33 10.2452 32.7869 11.4714 32.3606 12.6703C31.9344 13.8692 31.185 15.1839 30.1125 16.6144C29.04 18.045 27.5963 19.6594 25.7812 21.4578C23.9662 23.2561 21.67 25.3951 18.8925 27.8747L16.5 30ZM16.5 25.5858C19.14 23.2425 21.3125 21.233 23.0175 19.5572C24.7225 17.8815 26.07 16.4237 27.06 15.1839C28.05 13.9441 28.7375 12.8406 29.1225 11.8733C29.5075 10.906 29.7 9.9455 29.7 8.99183C29.7 7.35695 29.15 5.99455 28.05 4.90463C26.95 3.81471 25.575 3.26975 23.925 3.26975C22.6325 3.26975 21.4362 3.63079 20.3363 4.35286C19.2362 5.07493 18.48 5.99455 18.0675 7.11172H14.9325C14.52 5.99455 13.7638 5.07493 12.6637 4.35286C11.5638 3.63079 10.3675 3.26975 9.075 3.26975C7.425 3.26975 6.05 3.81471 4.95 4.90463C3.85 5.99455 3.3 7.35695 3.3 8.99183C3.3 9.9455 3.4925 10.906 3.8775 11.8733C4.2625 12.8406 4.95 13.9441 5.94 15.1839C6.93 16.4237 8.2775 17.8815 9.9825 19.5572C11.6875 21.233 13.86 23.2425 16.5 25.5858Z" fill="#FF986A"/>
</svg>
