<svg width="19" height="30" viewBox="0 0 19 30" fill="none" xmlns="http://www.w3.org/2000/svg">
<path d="M19 20.625C19 23.225 18.0753 25.4375 16.226 27.2625C14.3767 29.0875 12.1347 30 9.5 30C6.86533 30 4.62333 29.0875 2.774 27.2625C0.924667 25.4375 0 23.225 0 20.625V6.75C0 4.875 0.665 3.28125 1.995 1.96875C3.325 0.65625 4.94 0 6.84 0C8.74 0 10.355 0.65625 11.685 1.96875C13.015 3.28125 13.68 4.875 13.68 6.75V19.875C13.68 21.025 13.2747 22 12.464 22.8C11.6533 23.6 10.6653 24 9.5 24C8.33467 24 7.34667 23.6 6.536 22.8C5.72533 22 5.32 21.025 5.32 19.875V6H8.36V19.875C8.36 20.2 8.46767 20.4688 8.683 20.6813C8.89833 20.8938 9.17067 21 9.5 21C9.82933 21 10.1017 20.8938 10.317 20.6813C10.5323 20.4688 10.64 20.2 10.64 19.875V6.75C10.6147 5.7 10.241 4.8125 9.519 4.0875C8.797 3.3625 7.904 3 6.84 3C5.776 3 4.87667 3.3625 4.142 4.0875C3.40733 4.8125 3.04 5.7 3.04 6.75V20.625C3.01467 22.4 3.63533 23.9063 4.902 25.1438C6.16867 26.3813 7.70133 27 9.5 27C11.2733 27 12.7807 26.3813 14.022 25.1438C15.2633 23.9063 15.9093 22.4 15.96 20.625V6H19V20.625Z" fill="#FF986A"/>
</svg>
