<svg width="33" height="30" viewBox="0 0 33 30" fill="none" xmlns="http://www.w3.org/2000/svg">
<path d="M16.5 30L14.1075 27.8747C11.33 25.3951 9.03375 23.2561 7.21875 21.4578C5.40375 19.6594 3.96 18.045 2.8875 16.6144C1.815 15.1839 1.06563 13.8692 0.639375 12.6703C0.213125 11.4714 0 10.2452 0 8.99183C0 6.43052 0.86625 4.29155 2.59875 2.57493C4.33125 0.858311 6.49 0 9.075 0C10.505 0 11.8662 0.299727 13.1587 0.899183C14.4512 1.49864 15.565 2.34332 16.5 3.43324C17.435 2.34332 18.5488 1.49864 19.8413 0.899183C21.1338 0.299727 22.495 0 23.925 0C26.51 0 28.6688 0.858311 30.4013 2.57493C32.1338 4.29155 33 6.43052 33 8.99183C33 10.2452 32.7869 11.4714 32.3606 12.6703C31.9344 13.8692 31.185 15.1839 30.1125 16.6144C29.04 18.045 27.5963 19.6594 25.7812 21.4578C23.9662 23.2561 21.67 25.3951 18.8925 27.8747L16.5 30Z" fill="#FF986A"/>
</svg>
