<svg width="30" height="30" viewBox="0 0 30 30" fill="none" xmlns="http://www.w3.org/2000/svg">
<path d="M26.9875 20.2583C27.4361 19.2903 27.7726 18.2986 27.9969 17.2833C28.2212 16.2681 28.3334 15.2292 28.3334 14.1667C28.3334 12.2069 27.9615 10.3653 27.2177 8.64167C26.474 6.91806 25.4646 5.41875 24.1896 4.14375C22.9146 2.86875 21.4153 1.85938 19.6917 1.11563C17.9681 0.371875 16.1264 0 14.1667 0C12.207 0 10.3653 0.371875 8.6417 1.11563C6.91809 1.85938 5.41879 2.86875 4.14379 4.14375C2.86879 5.41875 1.85941 6.91806 1.11566 8.64167C0.371914 10.3653 3.62396e-05 12.2069 3.62396e-05 14.1667C3.62396e-05 16.1264 0.371914 17.9681 1.11566 19.6917C1.85941 21.4153 2.86879 22.9146 4.14379 24.1896C5.41879 25.4646 6.91809 26.474 8.6417 27.2177C10.3653 27.9615 12.207 28.3333 14.1667 28.3333C15.2292 28.3333 16.2681 28.2212 17.2834 27.9969C18.2986 27.7726 19.2903 27.4361 20.2584 26.9875L27.2709 29.0417C27.8139 29.2069 28.2861 29.0889 28.6875 28.6875C29.0889 28.2861 29.207 27.8139 29.0417 27.2708L26.9875 20.2583Z" fill="#FB4E00"/>
</svg>
