<svg width="44" height="42" viewBox="0 0 44 42" fill="none" xmlns="http://www.w3.org/2000/svg">
<path d="M18.8571 24H3.14286C2.25238 24 1.50595 23.7125 0.903571 23.1375C0.30119 22.5625 0 21.85 0 21C0 20.15 0.30119 19.4375 0.903571 18.8625C1.50595 18.2875 2.25238 18 3.14286 18H18.8571V3C18.8571 2.15 19.1583 1.4375 19.7607 0.8625C20.3631 0.2875 21.1095 0 22 0C22.8905 0 23.6369 0.2875 24.2393 0.8625C24.8417 1.4375 25.1429 2.15 25.1429 3V18H40.8571C41.7476 18 42.494 18.2875 43.0964 18.8625C43.6988 19.4375 44 20.15 44 21C44 21.85 43.6988 22.5625 43.0964 23.1375C42.494 23.7125 41.7476 24 40.8571 24H25.1429V39C25.1429 39.85 24.8417 40.5625 24.2393 41.1375C23.6369 41.7125 22.8905 42 22 42C21.1095 42 20.3631 41.7125 19.7607 41.1375C19.1583 40.5625 18.8571 39.85 18.8571 39V24Z" fill="#FF986A"/>
</svg>
