<svg width="41" height="43" viewBox="0 0 41 43" fill="none" xmlns="http://www.w3.org/2000/svg">
<path d="M5.125 38.0857H12.8125V25.8C12.8125 25.1038 13.0581 24.5202 13.5492 24.0493C14.0404 23.5783 14.649 23.3429 15.375 23.3429H25.625C26.351 23.3429 26.9596 23.5783 27.4508 24.0493C27.9419 24.5202 28.1875 25.1038 28.1875 25.8V38.0857H35.875V15.9714L20.5 4.91429L5.125 15.9714V38.0857ZM0 38.0857V15.9714C0 15.1933 0.18151 14.4562 0.544531 13.76C0.907552 13.0638 1.40937 12.4905 2.05 12.04L17.425 0.982857C18.3219 0.327619 19.3469 0 20.5 0C21.6531 0 22.6781 0.327619 23.575 0.982857L38.95 12.04C39.5906 12.4905 40.0924 13.0638 40.4555 13.76C40.8185 14.4562 41 15.1933 41 15.9714V38.0857C41 39.4371 40.4982 40.594 39.4945 41.5564C38.4909 42.5188 37.2844 43 35.875 43H25.625C24.899 43 24.2904 42.7645 23.7992 42.2936C23.3081 41.8226 23.0625 41.239 23.0625 40.5429V28.2571H17.9375V40.5429C17.9375 41.239 17.6919 41.8226 17.2008 42.2936C16.7096 42.7645 16.101 43 15.375 43H5.125C3.71562 43 2.50911 42.5188 1.50547 41.5564C0.501823 40.594 0 39.4371 0 38.0857Z" fill="#FF986A"/>
</svg>
