<svg width="43" height="43" viewBox="0 0 43 43" fill="none" xmlns="http://www.w3.org/2000/svg">
<path d="M27.1139 42.7577L14.3333 38.2155L3.225 42.5761C2.82685 42.7376 2.43866 42.788 2.06042 42.7275C1.68218 42.6669 1.3338 42.5357 1.01528 42.3338C0.696759 42.1319 0.447917 41.8594 0.26875 41.5162C0.0895833 41.173 0 40.7793 0 40.3352V6.35916C0 5.83427 0.149306 5.36995 0.447917 4.9662C0.746528 4.56244 1.15463 4.25962 1.67222 4.05775L12.7806 0.242254C13.0194 0.161502 13.2683 0.100939 13.5271 0.0605634C13.7859 0.0201878 14.0546 0 14.3333 0C14.612 0 14.8808 0.0201878 15.1396 0.0605634C15.3984 0.100939 15.6472 0.161502 15.8861 0.242254L28.6667 4.78451L39.775 0.423944C40.1731 0.262441 40.5613 0.211972 40.9396 0.272535C41.3178 0.333099 41.6662 0.464319 41.9847 0.666197C42.3032 0.868075 42.5521 1.14061 42.7313 1.4838C42.9104 1.827 43 2.22066 43 2.66479V36.6408C43 37.1657 42.8507 37.63 42.5521 38.0338C42.2535 38.4376 41.8454 38.7404 41.3278 38.9423L30.2194 42.7577C29.9806 42.8385 29.7317 42.8991 29.4729 42.9394C29.2141 42.9798 28.9454 43 28.6667 43C28.388 43 28.1192 42.9798 27.8604 42.9394C27.6016 42.8991 27.3528 42.8385 27.1139 42.7577ZM26.2778 37.3676V9.02394L16.7222 5.63239V33.9761L26.2778 37.3676ZM31.0556 37.3676L38.2222 34.9451V6.23803L31.0556 9.02394V37.3676ZM4.77778 36.762L11.9444 33.9761V5.63239L4.77778 8.05493V36.762Z" fill="#FF986A"/>
</svg>
