<svg width="43" height="43" viewBox="0 0 43 43" fill="none" xmlns="http://www.w3.org/2000/svg">
<path d="M0 39.4167V4.53889C0 3.26481 0.437963 2.18981 1.31389 1.31389C2.18981 0.437963 3.26481 0 4.53889 0H6.56944C7.525 0 8.39097 0.258796 9.16736 0.776389C9.94375 1.29398 10.4912 2.01065 10.8097 2.92639L21.5 31.175L32.0111 3.16528C32.3694 2.20972 32.9667 1.44329 33.8028 0.865972C34.6389 0.288657 35.5745 0 36.6097 0H38.1028C39.4565 0 40.6111 0.477778 41.5667 1.43333C42.5222 2.38889 43 3.54352 43 4.89722V39.4167C43 40.412 42.6516 41.2581 41.9549 41.9549C41.2581 42.6516 40.412 43 39.4167 43C38.4213 43 37.5752 42.6516 36.8785 41.9549C36.1817 41.2581 35.8333 40.412 35.8333 39.4167V13.7361L25.2625 41.1486C25.0634 41.706 24.725 42.1539 24.2472 42.4924C23.7694 42.8308 23.2319 43 22.6347 43H20.3653C19.7681 43 19.2306 42.8308 18.7528 42.4924C18.275 42.1539 17.9366 41.706 17.7375 41.1486L7.16667 13.9153V39.4167C7.16667 40.412 6.81829 41.2581 6.12153 41.9549C5.42477 42.6516 4.5787 43 3.58333 43C2.58796 43 1.7419 42.6516 1.04514 41.9549C0.34838 41.2581 0 40.412 0 39.4167Z" fill="#FF986A"/>
</svg>
