<svg width="91" height="91" viewBox="0 0 91 91" fill="none" xmlns="http://www.w3.org/2000/svg">
<path d="M45.5 45.5C39.2438 45.5 33.888 43.2724 29.4328 38.8172C24.9776 34.362 22.75 29.0063 22.75 22.75C22.75 16.4938 24.9776 11.138 29.4328 6.68281C33.888 2.2276 39.2438 0 45.5 0C51.7563 0 57.112 2.2276 61.5672 6.68281C66.0224 11.138 68.25 16.4938 68.25 22.75C68.25 29.0063 66.0224 34.362 61.5672 38.8172C57.112 43.2724 51.7563 45.5 45.5 45.5ZM0 79.625V75.075C0 71.8521 0.829427 68.8898 2.48828 66.1883C4.14714 63.4867 6.35104 61.425 9.1 60.0031C14.9771 57.0646 20.949 54.8607 27.0156 53.3914C33.0823 51.9221 39.2438 51.1875 45.5 51.1875C51.7563 51.1875 57.9177 51.9221 63.9844 53.3914C70.051 54.8607 76.0229 57.0646 81.9 60.0031C84.649 61.425 86.8529 63.4867 88.5117 66.1883C90.1706 68.8898 91 71.8521 91 75.075V79.625C91 82.7531 89.8862 85.431 87.6586 87.6586C85.431 89.8862 82.7531 91 79.625 91H11.375C8.24688 91 5.56901 89.8862 3.34141 87.6586C1.1138 85.431 0 82.7531 0 79.625ZM11.375 79.625H79.625V75.075C79.625 74.0323 79.3643 73.0844 78.843 72.2313C78.3216 71.3781 77.6344 70.7146 76.7812 70.2406C71.6625 67.6813 66.4964 65.7617 61.2828 64.482C56.0693 63.2023 50.8083 62.5625 45.5 62.5625C40.1917 62.5625 34.9307 63.2023 29.7172 64.482C24.5036 65.7617 19.3375 67.6813 14.2188 70.2406C13.3656 70.7146 12.6784 71.3781 12.157 72.2313C11.6357 73.0844 11.375 74.0323 11.375 75.075V79.625ZM45.5 34.125C48.6281 34.125 51.306 33.0112 53.5336 30.7836C55.7612 28.556 56.875 25.8781 56.875 22.75C56.875 19.6219 55.7612 16.944 53.5336 14.7164C51.306 12.4888 48.6281 11.375 45.5 11.375C42.3719 11.375 39.694 12.4888 37.4664 14.7164C35.2388 16.944 34.125 19.6219 34.125 22.75C34.125 25.8781 35.2388 28.556 37.4664 30.7836C39.694 33.0112 42.3719 34.125 45.5 34.125Z" fill="#FFFDF8"/>
</svg>
