<svg width="17" height="13" viewBox="0 0 17 13" fill="none" xmlns="http://www.w3.org/2000/svg">
<path d="M15.1338 0.5C15.4966 0.500112 15.8445 0.644463 16.1006 0.901367C16.3567 1.15838 16.5 1.50741 16.5 1.87012C16.4999 2.23269 16.3566 2.58096 16.1006 2.83789L15.7461 3.19336L15.7441 3.19141L6.87109 12.0977L6.87012 12.0967C6.74349 12.2241 6.59355 12.3264 6.42773 12.3955C6.26189 12.4646 6.08396 12.4999 5.9043 12.5C5.72444 12.5 5.54589 12.4647 5.37988 12.3955C5.21382 12.3263 5.06327 12.2243 4.93652 12.0967L0.899414 8.0459C0.77262 7.91864 0.672046 7.76759 0.603516 7.60156C0.535023 7.43561 0.500043 7.25764 0.5 7.07812C0.5 6.89868 0.53512 6.72059 0.603516 6.55469C0.671988 6.38878 0.772764 6.23755 0.899414 6.11035C1.02618 5.98313 1.17692 5.88148 1.34277 5.8125C1.50858 5.74357 1.68663 5.70806 1.86621 5.70801C2.04593 5.70801 2.22469 5.74352 2.39062 5.8125C2.55643 5.88148 2.70725 5.98316 2.83398 6.11035L5.9043 9.19238L14.166 0.901367C14.4222 0.644321 14.7708 0.5 15.1338 0.5Z" fill="#FFFDF8" stroke="#FFFDF8"/>
</svg>
